<svg xmlns="http://www.w3.org/2000/svg" version="1.1" xmlns:xlink="http://www.w3.org/1999/xlink" width="864" height="864"><svg xmlns="http://www.w3.org/2000/svg" x="0px" y="0px" viewBox="0 0 864 864" enable-background="new 0 0 864 864"><style>.ls0{fill:#231f20}.fs0{fill:#000}</style><g><path class="ls0" d="M314.5,148.3L148.3,314.5c0,2.2,0,233.3,0,235l166.2,166.2c10.9,0,87.3,0,104.1,0c0-6.8,0-311,0-317.7	c-6.4,0-127.7,0-134.2,0v68c6.7,0,59.6,0,66.2,0c0,4.8,0,176.8,0,181.6h-7.9L216.3,521.3c0-6.1,0-164.2,0-178.7l126.3-126.3h7.9	v96.2h68c0-6.9,0-157,0-164.2C392.8,148.3,332.5,148.3,314.5,148.3z"></path><path class="ls0" d="M521.3,216.3l126.3,126.3l68-28.2L549.5,148.3c-10.9,0-87.3,0-104.1,0c0,4.5,0,222.5,0,227.1	c7.6,7.6,166.7,166.7,174.1,174.1l-35,35l-63.2,63.2h-7.9v-68h-68c0,6,0,130.1,0,136.1c25.8,0,86.1,0,104.1,0	c166.6-166.6,56.4-56.5,166.2-166.2c-6-6-191.1-191.1-202.3-202.3V216.3H521.3z"></path></g><g class="fs0"><path d="M280.3,65.8L65.8,280.3v303.4l214.5,214.5h303.4l214.5-214.5V280.3L583.7,65.8H280.3z M742.7,560.7l-182,182H303.3l-182-182	V303.3l182-182h257.4l182,182V560.7L742.7,560.7z"></path></g></svg><style>@media (prefers-color-scheme: light) { :root { filter: none; } }
@media (prefers-color-scheme: dark) { :root { filter: invert(100%); } }
</style></svg>